<?xml version="1.0" encoding="utf-8"?>
<!-- Generator: Adobe Illustrator 19.2.1, SVG Export Plug-In . SVG Version: 6.00 Build 0)  -->
<svg version="1.1" id="katman_1" xmlns="http://www.w3.org/2000/svg" xmlns:xlink="http://www.w3.org/1999/xlink" x="0px" y="0px"
	 viewBox="0 0 50 50" style="enable-background:new 0 0 50 50;" xml:space="preserve">
<style type="text/css">
	.st0{fill:#7D7D7D;}
</style>
<g>
	<g>
		<path class="st0" d="M47.1,9.5l-27.9,0c-1.6,0-2.9,1.3-2.9,2.9v1.3c-0.6-0.3-1.3-0.4-2.3-0.4c-1.2,0-2.1,0.3-2.3,0.3
			c-0.2,0.1-0.4,0.2-0.6,0.3L0.5,23.2C0.2,23.6,0,24,0,24.5l0.1,15.3c0,0.8,1,1.5,1.8,1.5c0,0,4,0.2,7.5,0.2c2.1,0,3.6-0.1,4.6-0.2
			c2.8-0.4,4-1.2,4.5-1.7c0.5-0.4,1-0.8,1.5-1.1c-0.4,1.5,0.3,3.1,1.7,3.9c0.5,0.2,1,0.4,1.5,0.4c0.9,0,1.8-0.4,2.4-1
			c0.3,0.4,0.7,0.8,1.2,1c0.5,0.2,1,0.4,1.5,0.4c1.3,0,2.4-0.7,3-1.8l2.2-4.3c0.4-0.8,0.5-1.7,0.2-2.5c-0.1-0.3-0.2-0.5-0.4-0.8
			l13.8,0c1.6,0,2.9-1.3,2.9-2.9l0-18.2C50,10.8,48.7,9.5,47.1,9.5z M26.5,35.6l-2.2,4.3c-0.3,0.6-1.1,0.9-1.7,0.6
			c-0.6-0.3-0.9-1.1-0.6-1.7l1.8-3.6c0,0,0.6-1.4,1.5-1.5c0.2,0,0.4,0,0.5,0.1c0.3,0.2,0.5,0.4,0.6,0.7
			C26.7,34.9,26.7,35.3,26.5,35.6z M23.1,31.7l-2,1.8h0c-1.2,1.1-2.7,2.3-4.6,3.6c-0.1,0.1-0.1,0.1-0.2,0.2c0,0-0.6,0.5-2.7,0.8
			c-0.6,0.1-1.8,0.1-4.2,0.1c-2.1,0-4.8,0-6.3,0l0-13.1l9.8-8.6c0.3-0.1,0.7-0.1,1.1-0.1c0.6,0,1.1,0.1,1.3,0.3v10.8
			c0,0.6,0.3,1.1,0.8,1.3c0.1,0,0.1,0,0.2,0.1v0.1l0.1-0.1c0.4,0.1,0.8,0.2,1.2-0.1c2.4-1.3,7-3.4,9.1-3.4c0.1,0,0.2,0,0.2,0
			c0,0,0,0,0,0C27,25.8,27.2,27.7,23.1,31.7z M31.6,35.9l-2.2,4.3c-0.3,0.6-1.1,0.9-1.7,0.6c-0.6-0.3-0.9-1.1-0.5-1.7l2.2-4.3
			c0.2-0.4,0.6-0.7,1.1-0.7c0.2,0,0.4,0.1,0.6,0.1c0.3,0.2,0.5,0.4,0.6,0.7C31.8,35.3,31.8,35.6,31.6,35.9z M48.1,30.7
			c0,0.5-0.4,1-1,1l-19.7,0c1.6-2,2.5-3.8,2.7-5.3c0.1-1.2-0.2-2-0.5-2.4c-0.3-0.6-1.1-1.5-2.9-1.5c-2.3,0-5.9,1.5-8.2,2.6v-4.3
			l29.6,0L48.1,30.7z M48.1,15l-29.8,0v-2.6c0-0.5,0.4-1,1-1l27.9,0c0.5,0,1,0.5,1,1L48.1,15z"/>
		<polygon class="st0" points="45.9,29.8 45.8,27.2 38.2,27.2 38.2,29.8 		"/>
	</g>
</g>
</svg>
